# AST/ASF file generated using VICON BodyLanguage
# -----------------------------------------------
:version 1.10
:name VICON
:units
  mass 1.0
  length 0.45
  angle deg
:documentation
   .ast/.asf automatically generated from VICON data using
   VICON BodyBuilder and BodyLanguage model FoxedUp or BRILLIANT.MOD
:root
   order TX TY TZ RX RY RZ
   axis XYZ
   position 0 0 0  
   orientation 0 0 0 
:bonedata
  begin
     id 1 
     name lhipjoint
     direction 0.690799 -0.707083 0.151096 
     length 2.54797 
     axis 0 0 0  XYZ
  end
  begin
     id 2 
     name lfemur
     direction 0.34202 -0.939693 0  
     length 7.21646  
     axis 0 0 20  XYZ
    dof rx ry rz
    limits (-160.0 20.0)
           (-70.0 70.0)
           (-60.0 70.0)
  end
  begin
     id 3 
     name ltibia
     direction 0.34202 -0.939693 0   
     length 8.16759   
     axis 0 0 20   XYZ
    dof rx
    limits (-10.0 170.0)
  end
  begin
     id 4 
     name lfoot
     direction 0.0487203 -0.133858 0.989802   
     length 1.93375   
     axis -90 7.62852e-016 20   XYZ
    dof rx rz
    limits (-45.0 90.0)
           (-70.0 20.0)
  end
  begin
     id 5 
     name ltoes
     direction 1.53453e-011 -4.21783e-011 1   
     length 0.979747   
     axis -90 7.62852e-016 20   XYZ
    dof rx
    limits (-90.0 20.0)
  end
  begin
     id 6 
     name rhipjoint
     direction -0.694693 -0.703425 0.150315   
     length 2.56122  
     axis 0 0 0  XYZ 
  end
  begin
     id 7 
     name rfemur
     direction -0.34202 -0.939693 0   
     length 7.36786   
     axis 0 0 -20   XYZ
    dof rx ry rz
    limits (-160.0 20.0)
           (-70.0 70.0)
           (-70.0 60.0)
  end
  begin
     id 8 
     name rtibia
     direction -0.34202 -0.939693 0   
     length 8.07288   
     axis 0 0 -20   XYZ
    dof rx
    limits (-10.0 170.0)
 end
 begin
     id 9 
     name rfoot
     direction -0.0428397 -0.117701 0.992125   
     length 1.88295  
     axis -90 -7.62852e-016 -20   XYZ
    dof rx rz
    limits (-45.0 90.0)
           (-20.0 70.0)
  end
  begin
     id 10 
     name rtoes
     direction -1.53456e-011 -4.2187e-011 1   
     length 0.955578   
     axis -90 -7.62852e-016 -20   XYZ
    dof rx
    limits (-90.0 20.0)
  end
  begin
     id 11 
     name lowerback
     direction 0.0288145 0.999398 -0.0193241   
     length 1.92149   
     axis 0 0 0   XYZ
    dof rx ry rz
    limits (-20.0 45.0)
           (-30.0 30.0)
           (-30.0 30.0)
  end
  begin
     id 12 
     name upperback
     direction 0.0233784 0.998099 0.0570278   
     length 1.90435   
     axis 0 0 0   XYZ
    dof rx ry rz
    limits (-20.0 45.0)
           (-30.0 30.0)
           (-30.0 30.0)
  end
  begin
     id 13 
     name thorax
     direction 0.0096694 0.997833 0.0650817   
     length 1.9111   
     axis 0 0 0   XYZ
    dof rx ry rz
    limits (-20.0 45.0)
           (-30.0 30.0)
           (-30.0 30.0)
  end
  begin
     id 14 
     name lowerneck
     direction 0.00516803 0.999916 0.0118722   
     length 1.74664   
     axis 0 0 0   XYZ
    dof rx ry rz
    limits (-20.0 45.0)
           (-30.0 30.0)
           (-30.0 30.0)
  end
  begin
     id 15 
     name upperneck
     direction -0.0510851 0.996117 -0.071696   
     length 1.68498   
     axis 0 0 0   XYZ
    dof rx ry rz
    limits (-20.0 45.0)
           (-30.0 30.0)
           (-30.0 30.0)
  end
  begin
     id 16
     name head
     direction -0.019188 0.999436 -0.0275702  
     length 1.83483  
     axis 0 0 0   XYZ
    dof rx ry rz
    limits (-20.0 45.0)
           (-30.0 30.0)
           (-30.0 30.0)
  end
  begin
     id 17 
     name lclavicle
     direction 0.967006 0.248456 -0.0562957  
     length 3.39395  
     axis 0 0 0   XYZ
    dof ry rz
    limits (-20.0 10.0)
           (0.0 20.0)
  end
  begin
     id 18 
     name lhumerus
     direction 1 -4.48962e-011 -5.62711e-019   
     length 5.24318   
     axis 180 -30 -90   XYZ
    dof rx ry rz
    limits (-60.0 90.0)
           (-90.0 90.0)
           (-90.0 90.0)
  end
  begin
     id 19
     name lradius
     direction 1 -4.48966e-011 7.90625e-027   
     length 2.98999   
     axis 180 -30 -90   XYZ
    dof rx
    limits (-10.0 170.0)
  end
  begin
     id 20
     name lwrist
     direction 1 -4.48959e-011 1.61068e-026   
     length 1.49499   
     axis -9.31229e-015 90 90   XYZ
    dof ry
    limits (-180.0 0.0)
 end
  begin
     id 21 
     name lhand
     direction 1 -4.49017e-011 3.22136e-026   
     length 0.726745   
     axis -2.0555e-014 90 90   XYZ
    dof rx rz
    limits (-90.0 90.0)
           (-45.0 45.0)
  end
  begin
     id 22 
     name lfingers
     direction 1 -4.4898e-011 6.44272e-026   
     length 0.58592   
     axis -4.11101e-014 90 90   XYZ
    dof rx
    limits (0.0 90.0)
  end
  begin
     id 23
     name lthumb
     direction 0.707107 -6.34922e-011 0.707107   
     length 0.841268   
     axis -90 45 2.85299e-015   XYZ
    dof rx rz
    limits (-45.0 45.0)
           (-45.0 45.0)
  end
  begin
     id 24 
     name rclavicle
     direction -0.972232 0.230238 0.0419005   
     length 3.40416  
     axis 0 0 0   XYZ 
    dof ry rz
    limits (-10.0 20.0)
           (-20.0 0.0)
  end
  begin
     id 25 
     name rhumerus
     direction -1 -4.48976e-011 2.48487e-027  
     length 5.37045   
     axis 180 30 90   XYZ
    dof rx ry rz
    limits (-90.0 60.0)
           (-90.0 90.0)
           (-90.0 90.0)
  end
  begin
     id 26 
     name rradius
     direction -1 -4.48942e-011 7.87951e-027   
     length 2.92792   
     axis 180 30 90   XYZ
    dof rx
    limits (-10.0 170.0)
  end
  begin
     id 27 
     name rwrist
     direction -1 -4.48969e-011 1.61068e-026   
     length 1.46396   
     axis -9.31229e-015 -90 -90   XYZ
    dof ry
    limits (-180.0 0.0)
  end
  begin
     id 28
     name rhand
     direction -1 -4.49043e-011 3.22136e-026   
     length 0.784497   
     axis -2.0555e-014 -90 -90   XYZ
    dof rx rz
    limits (-90.0 90.0)
           (-45.0 45.0)
  end
  begin
     id 29
     name rfingers
     direction -1 -4.48823e-011 6.44272e-026   
     length 0.632482   
     axis -4.11101e-014 -90 -90   XYZ
    dof rx
    limits (0.0 90.0)
  end
  begin
     id 30
     name rthumb
     direction -0.707107 -6.34923e-011 0.707107   
     length 0.908121   
     axis -90 -45 -2.85299e-015   XYZ
    dof rx rz
    limits (-45.0 45.0)
           (-45.0 45.0)
  end
:hierarchy
  begin
    root lhipjoint rhipjoint lowerback
    lhipjoint lfemur
    lfemur ltibia
    ltibia lfoot
    lfoot ltoes
    rhipjoint rfemur
    rfemur rtibia
    rtibia rfoot
    rfoot rtoes
    lowerback upperback
    upperback thorax
    thorax lowerneck lclavicle rclavicle
    lowerneck upperneck
    upperneck head
    lclavicle lhumerus
    lhumerus lradius
    lradius lwrist
    lwrist lhand lthumb
    lhand lfingers
    rclavicle rhumerus
    rhumerus rradius
    rradius rwrist
    rwrist rhand rthumb
    rhand rfingers
  end

#!OML:ASF E:\Style6\Style6.ASF
:FULLY-SPECIFIED
:DEGREES
1
root 0.206581 18.0537 0.920004 11.7244 15.9521 -1.25586
lowerback 1.59991 1.65401 0.202734
upperback -6.03566 2.58804 4.89917
thorax -7.44666 1.46014 4.83735
lowerneck 3.82561 0.618007 1.42987
upperneck -25.1314 -1.37302 -11.2425
head -8.47599 0.342826 -3.96288
rclavicle 4.02818e-014 2.38542e-014
rhumerus -6.01736 8.73452 -5.65633
rradius 92.1376
rwrist -10.8945
rhand 29.0268 1.19968
rfingers 7.12502
rthumb 52.8299 -18.3998
lclavicle 4.02818e-014 2.38542e-014
lhumerus 40.3284 56.8383 8.5524
lradius 41.2044
lwrist -1.59252
lhand 13.1169 25.6534
lfingers 7.12502
lthumb 38.0763 51.4318
rfemur -18.1923 -3.17555 21.6976
rtibia 23.7662
rfoot -14.4282 -17.0392
rtoes -0.975306
lfemur -22.4959 -10.577 -12.8527
ltibia 24.5855
lfoot -9.12588 -0.523209
ltoes -20.0137
2
root 0.206961 18.0586 0.915188 11.806 15.8557 -1.28008
lowerback 1.69444 1.63331 0.230773
upperback -6.04716 2.56562 4.9073
thorax -7.51142 1.44818 4.8302
lowerneck 3.78668 0.619444 1.35521
upperneck -25.0519 -1.35596 -11.1582
head -8.44019 0.345638 -3.91836
rclavicle 1.21202e-014 4.45278e-014
rhumerus -5.97436 8.75505 -5.63049
rradius 92.2107
rwrist -10.8821
rhand 29.0551 1.20957
rfingers 7.12502
rthumb 52.8555 -18.3739
lclavicle 1.21202e-014 4.45278e-014
lhumerus 40.1719 56.7834 8.42185
lradius 41.2347
lwrist -1.48081
lhand 13.0843 25.6832
lfingers 7.12502
lthumb 38.0455 51.4701
rfemur -18.2695 -3.0764 21.6989
rtibia 23.6806
rfoot -14.3974 -16.9888
rtoes -0.597439
lfemur -22.5446 -10.6561 -12.81
ltibia 24.5235
lfoot -9.07207 -0.313981
ltoes -20.5273
3
root 0.206465 18.0621 0.910793 11.881 15.7373 -1.30168
lowerback 1.75415 1.62267 0.232116
upperback -6.03172 2.55326 4.92311
thorax -7.52938 1.44233 4.84615
lowerneck 3.75512 0.602377 1.35214
upperneck -24.9775 -1.37531 -11.156
head -8.41019 0.332729 -3.91239
rclavicle 1.76515e-014 -3.49861e-014
rhumerus -5.91867 8.77037 -5.58247
rradius 92.255
rwrist -10.918
rhand 29.1416 1.31766
rfingers 7.12502
rthumb 52.9336 -18.2166
lclavicle 1.76515e-014 -3.49861e-014
lhumerus 40.6572 56.7822 8.99485
lradius 41.1298
lwrist -1.7382
lhand 12.8962 25.7242
lfingers 7.12502
lthumb 37.8678 51.5593
rfemur -18.3686 -2.98965 21.7032
rtibia 23.6501
rfoot -14.3203 -16.9701
rtoes -0.700155
lfemur -22.5683 -10.7001 -12.7779
ltibia 24.4125
lfoot -8.98343 -0.0970551
ltoes -21.0253
4
root 0.2067 18.0663 0.907187 11.9412 15.5978 -1.28947
lowerback 1.79835 1.60875 0.205108
upperback -6.0088 2.53254 4.92077
thorax -7.52964 1.433 4.85974
lowerneck 3.93332 0.584145 1.44996
upperneck -25.0384 -1.41918 -11.2383
head -8.4676 0.316661 -3.95864
rclavicle -6.72327e-014 -1.74931e-014
rhumerus -5.83648 8.80519 -5.56215
rradius 92.2424
rwrist -10.8785
rhand 29.1216 1.47951
rfingers 7.12502
rthumb 52.9155 -18.0662
lclavicle -6.72327e-014 -1.74931e-014
lhumerus 41.2525 56.7669 9.69338
lradius 41.0671
lwrist -2.15451
lhand 12.8849 25.7892
lfingers 7.12502
lthumb 37.8571 51.6272
rfemur -18.4488 -2.87107 21.6552
rtibia 23.6309
rfoot -14.2953 -16.9218
rtoes -0.323551
lfemur -22.538 -10.7467 -12.789
ltibia 24.2767
lfoot -8.8935 0.108809
ltoes -21.354
5
root 0.206914 18.0704 0.904614 12.0426 15.455 -1.20505
lowerback 1.79962 1.57865 0.0838247
upperback -5.96223 2.48227 4.92236
thorax -7.48128 1.41403 4.93434
lowerneck 3.95512 0.611907 1.51854
upperneck -24.9998 -1.38999 -11.3225
head -8.45607 0.330698 -4.00085
rclavicle -2.77553e-014 -1.11319e-014
rhumerus -5.6714 8.79267 -5.51313
rradius 92.2041
rwrist -10.8202
rhand 29.0348 1.52031
rfingers 7.12502
rthumb 52.8371 -18.0746
lclavicle -2.77553e-014 -1.11319e-014
lhumerus 40.2193 56.647 8.65358
lradius 41.329
lwrist -1.71552
lhand 13.0154 25.9301
lfingers 7.12502
lthumb 37.9804 51.7346
rfemur -18.5758 -2.79092 21.5314
rtibia 23.6342
rfoot -14.2962 -16.7978
rtoes 0.435959
lfemur -22.5121 -10.8141 -12.8671
ltibia 24.1267
lfoot -8.80351 0.297273
ltoes -21.4741
6
root 0.207959 18.0747 0.901977 12.1191 15.313 -1.12811
lowerback 1.7955 1.55449 -0.0188089
upperback -5.88799 2.44019 4.93445
thorax -7.40022 1.39752 5.00876
lowerneck 3.89925 0.624388 1.53691
upperneck -24.8903 -1.36983 -11.3569
head -8.40642 0.336108 -4.01275
rclavicle -1.12189e-014 -3.33958e-014
rhumerus -5.55718 8.77343 -5.4053
rradius 92.2254
rwrist -10.7707
rhand 28.9621 1.40989
rfingers 7.12502
rthumb 52.7714 -18.2261
lclavicle -1.12189e-014 -3.33958e-014
lhumerus 40.987 56.7592 9.56161
lradius 41.1829
lwrist -2.38816
lhand 12.9906 25.7714
lfingers 7.12502
lthumb 37.9569 51.5823
rfemur -18.6692 -2.7396 21.4191
rtibia 23.6305
rfoot -14.1633 -16.7644
rtoes 0.0649775
lfemur -22.4672 -10.8972 -12.9478
ltibia 23.9883
lfoot -8.73008 0.521047
ltoes -21.4881
7
root 0.208264 18.077 0.897523 12.2298 15.1655 -1.04945
lowerback 1.76935 1.54339 -0.130634
upperback -5.82176 2.41541 4.94895
thorax -7.31717 1.39027 5.08999
lowerneck 3.93251 0.59792 1.47772
upperneck -24.9341 -1.41839 -11.3446
head -8.43177 0.319178 -3.99626
rclavicle -3.18801e-014 4.77083e-015
rhumerus -5.43488 8.73059 -5.25334
rradius 92.2468
rwrist -10.7696
rhand 28.9772 1.35002
rfingers 7.12502
rthumb 52.7851 -18.2775
lclavicle -3.18801e-014 4.77083e-015
lhumerus 40.9576 56.7401 9.60339
lradius 41.2178
lwrist -2.60006
lhand 12.9024 25.7115
lfingers 7.12502
lthumb 37.8737 51.545
rfemur -18.7862 -2.64665 21.3066
rtibia 23.6117
rfoot -14.0963 -16.685
rtoes 0.125781
lfemur -22.4947 -10.9789 -13.0147
ltibia 23.8814
lfoot -8.66084 0.708831
ltoes -21.4839
8
root 0.206818 18.0776 0.892266 12.3026 15.0616 -1.12277
lowerback 1.79621 1.53077 -0.074492
upperback -5.79267 2.40329 4.99042
thorax -7.30006 1.38176 5.1028
lowerneck 4.02689 0.56323 1.36125
upperneck -25.0337 -1.48417 -11.2973
head -8.48927 0.299605 -3.9589
rclavicle 4.71368e-014 -1.59028e-015
rhumerus -5.33851 8.72901 -5.1135
rradius 92.2805
rwrist -10.8404
rhand 29.14 1.25811
rfingers 7.12502
rthumb 52.9321 -18.2771
lclavicle 4.71368e-014 -1.59028e-015
lhumerus 40.8493 56.6579 9.54426
lradius 41.2846
lwrist -2.77459
lhand 12.8135 25.7373
lfingers 7.12502
lthumb 37.7897 51.5935
rfemur -18.8952 -2.52829 21.3663
rtibia 23.5751
rfoot -13.9182 -16.7005
rtoes -0.453281
lfemur -22.563 -11.0342 -12.9069
ltibia 23.8136
lfoot -8.58093 0.902519
ltoes -21.9045
9
root 0.204951 18.0792 0.886031 12.3751 14.9311 -1.19885
lowerback 1.84911 1.52631 -0.0182081
upperback -5.75491 2.40138 5.01632
thorax -7.28884 1.37756 5.09743
lowerneck 4.03094 0.551547 1.31333
upperneck -25.0484 -1.50208 -11.2621
head -8.49659 0.29234 -3.93738
rclavicle 1.2424e-015 -6.20208e-014
rhumerus -5.22294 8.73148 -5.00451
rradius 92.2799
rwrist -10.8532
rhand 29.1485 1.18769
rfingers 7.12502
rthumb 52.9398 -18.3427
lclavicle 1.2424e-015 -6.20208e-014
lhumerus 40.9583 56.6622 9.69961
lradius 41.2939
lwrist -3.10447
lhand 12.7328 25.8171
lfingers 7.12502
lthumb 37.7134 51.6937
rfemur -19.0179 -2.34138 21.4151
rtibia 23.5318
rfoot -13.7544 -16.7816
rtoes -0.756178
lfemur -22.6278 -11.038 -12.8108
ltibia 23.752
lfoot -8.49036 1.07419
ltoes -22.0626
10
root 0.204466 18.0815 0.879239 12.4771 14.7898 -1.21113
lowerback 1.8743 1.53271 0.00830687
upperback -5.72461 2.40933 5.00276
thorax -7.26949 1.37853 5.06641
lowerneck 4.04033 0.540827 1.36257
upperneck -24.9934 -1.51875 -11.3075
head -8.4806 0.282255 -3.95845
rclavicle -1.96797e-014 -3.97569e-014
rhumerus -5.12166 8.6921 -4.92067
rradius 92.2127
rwrist -10.7706
rhand 29.0598 1.30595
rfingers 7.12502
rthumb 52.8597 -18.2748
lclavicle -1.96797e-014 -3.97569e-014
lhumerus 40.8232 56.5737 9.55062
lradius 41.3403
lwrist -3.27383
lhand 12.6495 25.7128
lfingers 7.12502
lthumb 37.6348 51.6105
rfemur -19.1562 -2.21295 21.3994
rtibia 23.4927
rfoot -13.6021 -16.7655
rtoes -0.534418
lfemur -22.7062 -11.0477 -12.7845
ltibia 23.6878
lfoot -8.42236 1.19848
ltoes -21.7949
11
root 0.205986 18.0849 0.873987 12.5682 14.6616 -1.16005
lowerback 1.89173 1.52728 0.00599983
upperback -5.68498 2.39715 4.96343
thorax -7.23348 1.36983 5.02596
lowerneck 4.08864 0.539529 1.36267
upperneck -25.0003 -1.5214 -11.2958
head -8.49221 0.281023 -3.95484
rclavicle -2.33572e-015 1.74931e-014
rhumerus -5.01889 8.5901 -4.86957
rradius 92.1523
rwrist -10.6998
rhand 29.1871 1.4414
rfingers 7.12502
rthumb 52.9746 -18.067
lclavicle -2.33572e-015 1.74931e-014
lhumerus 40.7616 56.4715 9.46688
lradius 41.4041
lwrist -3.53541
lhand 12.6276 25.5979
lfingers 7.12502
lthumb 37.614 51.5012
rfemur -19.2501 -2.12003 21.3113
rtibia 23.4417
rfoot -13.4565 -16.8063
rtoes -1.18176
lfemur -22.7379 -11.1229 -12.8304
ltibia 23.6278
lfoot -8.36876 1.38454
ltoes -21.648
